/* XPM */
static char * close_activedown_xpm[] = {
"19 19 206 2",
"  	c None",
". 	c #2B2A2B",
"+ 	c #E3DEDA",
"@ 	c #E4E1DB",
"# 	c #EDE8E8",
"$ 	c #EAE7E2",
"% 	c #E0DBE4",
"& 	c #E1DED6",
"* 	c #F7F3EC",
"= 	c #FAF6EE",
"- 	c #FBF7F2",
"; 	c #D5D0C9",
"> 	c #918755",
", 	c #9A9580",
"' 	c #FFFDFD",
") 	c #EEEAE2",
"! 	c #F3F3E5",
"~ 	c #FDF4FB",
"{ 	c #BEBCAC",
"] 	c #817F6E",
"^ 	c #D5CFC9",
"/ 	c #E8E4DD",
"( 	c #B3B0A8",
"_ 	c #8B8C5A",
": 	c #D8D863",
"< 	c #B5B04C",
"[ 	c #8AA740",
"} 	c #88D732",
"| 	c #9BF422",
"1 	c #96EF22",
"2 	c #A4FB2D",
"3 	c #8CB14E",
"4 	c #9D9C75",
"5 	c #D6D657",
"6 	c #847F4C",
"7 	c #ACA9A1",
"8 	c #9D9C8F",
"9 	c #929363",
"0 	c #E6E785",
"a 	c #FCFB73",
"b 	c #FEFB51",
"c 	c #B0AF29",
"d 	c #69950E",
"e 	c #87EF00",
"f 	c #9BFF00",
"g 	c #68A903",
"h 	c #95A449",
"i 	c #F3F086",
"j 	c #FEFE69",
"k 	c #E7DE3E",
"l 	c #8C7A34",
"m 	c #97968E",
"n 	c #918F84",
"o 	c #A0A14F",
"p 	c #FEFE7B",
"q 	c #FDF443",
"r 	c #C3B93D",
"s 	c #6A7C24",
"t 	c #AAB754",
"u 	c #EBE98C",
"v 	c #FCEA3A",
"w 	c #F1DA32",
"x 	c #978225",
"y 	c #8D8B75",
"z 	c #E5E1D4",
"A 	c #A4A297",
"B 	c #9C945B",
"C 	c #DDD54C",
"D 	c #FFFF4A",
"E 	c #FBEC43",
"F 	c #FEFC44",
"G 	c #C5B440",
"H 	c #B0AF59",
"I 	c #FFF774",
"J 	c #FBE53B",
"K 	c #FDE937",
"L 	c #FFDC2E",
"M 	c #9F872B",
"N 	c #848178",
"O 	c #D9D2CC",
"P 	c #9AAD72",
"Q 	c #7D961C",
"R 	c #CBBD3A",
"S 	c #FEF43E",
"T 	c #FFF160",
"U 	c #FEEB5F",
"V 	c #FDE340",
"W 	c #FEE433",
"X 	c #EAC633",
"Y 	c #948628",
"Z 	c #92916C",
"` 	c #CAC6BD",
" .	c #D1CDBB",
"..	c #D4C6C6",
"+.	c #B1DF67",
"@.	c #7ACE04",
"#.	c #C5B134",
"$.	c #FDDD31",
"%.	c #E9BB2B",
"&.	c #8B8519",
"*.	c #84A516",
"=.	c #B8CC75",
"-.	c #CBC9B1",
";.	c #CABCC1",
">.	c #ADDF57",
",.	c #92FC00",
"'.	c #8FD404",
").	c #7B9414",
"!.	c #C0B62B",
"~.	c #D8B42A",
"{.	c #98B707",
"].	c #BBF200",
"^.	c #C7DF62",
"/.	c #C3BABB",
"(.	c #C5C3AB",
"_.	c #C1B5B4",
":.	c #A5CF55",
"<.	c #A6F601",
"[.	c #779A0C",
"}.	c #F6DE52",
"|.	c #FCD52C",
"1.	c #C4A026",
"2.	c #6C7312",
"3.	c #C7EB01",
"4.	c #C9F806",
"5.	c #B8CC65",
"6.	c #C0BBB3",
"7.	c #BFBEA3",
"8.	c #B6ADA1",
"9.	c #B4CF68",
"0.	c #97E216",
"a.	c #7DB810",
"b.	c #B2A955",
"c.	c #F2DD8B",
"d.	c #FCD225",
"e.	c #F3BF29",
"f.	c #BB9321",
"g.	c #8E980D",
"h.	c #B0CE2B",
"i.	c #C3CF77",
"j.	c #B7B2A5",
"k.	c #BAB89B",
"l.	c #A6B379",
"m.	c #8BA04A",
"n.	c #A2A158",
"o.	c #F8E990",
"p.	c #FFE06A",
"q.	c #FCD337",
"r.	c #F1C62D",
"s.	c #F9C928",
"t.	c #FECC25",
"u.	c #FCC323",
"v.	c #A67E1E",
"w.	c #8F8843",
"x.	c #A7AA7D",
"y.	c #B7B299",
"z.	c #B4B193",
"A.	c #B8B695",
"B.	c #756F5C",
"C.	c #88844E",
"D.	c #FED863",
"E.	c #E4B028",
"F.	c #9C8624",
"G.	c #98811D",
"H.	c #DAA223",
"I.	c #85601A",
"J.	c #726956",
"K.	c #AAA789",
"L.	c #ACA98B",
"M.	c #81805C",
"N.	c #E6B93D",
"O.	c #DFA81F",
"P.	c #849C04",
"Q.	c #A2C000",
"R.	c #A08D0D",
"S.	c #C98F1C",
"T.	c #FEB51E",
"U.	c #E3991B",
"V.	c #866021",
"W.	c #797256",
"X.	c #A7A485",
"Y.	c #A3A07C",
"Z.	c #9D9E81",
"`.	c #777060",
" +	c #705124",
".+	c #887423",
"++	c #869F17",
"@+	c #CFF20B",
"#+	c #9BBA17",
"$+	c #887F22",
"%+	c #C17F1F",
"&+	c #D88C19",
"*+	c #76745F",
"=+	c #A19E7C",
"-+	c #A09D73",
";+	c #868565",
">+	c #6C562F",
",+	c #5F5436",
"'+	c #868369",
")+	c #A8A57C",
"!+	c #9EA269",
"~+	c #635E44",
"{+	c #5E4C2D",
"]+	c #8E8D69",
"^+	c #908D69",
"/+	c #2F2E30",
". . . . . . . . . . . . . . . . . . . ",
"+ + + @ # $ % & & & & & $ $ @ & @ @ @ ",
"* = - ; > , $ ' ) ! ~ ~ { ] ^ - * * = ",
"/ $ ( _ : < [ } | 1 2 3 4 5 6 7 # ) / ",
"& 8 9 0 a b c d e f g h i j k l m @ & ",
"n o j p b q q r s d t u a v q w x y z ",
"A B C D q E F E G H u I J K K L M N O ",
"^ P Q R S S J v S T U V W K X Y Z `  .",
"..+.@.Q #.J S J J J W W $.%.&.*.=.^ -.",
";.>.,.'.).!.J v J L $.$.~.&.{.].^./.(.",
"_.:.f <.[.< }.L |.|.|.L 1.2.3.4.5.6.7.",
"8.9.0.a.b.c.T d.L L |.|.e.f.g.h.i.j.k.",
"j.l.m.n.o.p.q.L r.%.s.s.t.u.v.w.x.y.z.",
"A.B.C.p D.s.d.E.F.G.H.u.u.u.u.I.J.z.K.",
"L.M.l N.|.d.O.G.P.Q.R.S.T.T.U.V.W.X.X.",
"Y.Z.`. +H.H..+++4.@+#+$+%+&+ +*+=+=+=+",
"4 -+4 ;+>+,+'+)+!+!+Y.y ~+{+;+4 -+4 -+",
"]+]+]+^+Z Z Z ^+Z ^+]+^+Z Z ^+]+]+]+]+",
"/+/+/+/+/+/+/+/+/+. /+/+/+/+/+. /+/+/+"};
