/* XPM */
static char * close_inactive_xpm[] = {
"19 19 98 2",
"  	c None",
". 	c #272728",
"+ 	c #272627",
"@ 	c #C6C2BE",
"# 	c #CAC6C1",
"$ 	c #D1CDCA",
"% 	c #CDC9C3",
"& 	c #C8C5BC",
"* 	c #C7C3C0",
"= 	c #C3BFBB",
"- 	c #D8D4CE",
"; 	c #DAD6D0",
"> 	c #DDD8D3",
", 	c #B5B1AD",
"' 	c #636159",
") 	c #74736A",
"! 	c #D5D1CA",
"~ 	c #E1DDD9",
"{ 	c #A19D98",
"] 	c #96938C",
"^ 	c #666557",
"/ 	c #9D9B83",
"( 	c #7E7D69",
"_ 	c #79775E",
": 	c #868464",
"< 	c #7D7B63",
"[ 	c #8E8B73",
"} 	c #747263",
"| 	c #95937B",
"1 	c #5B594B",
"2 	c #828078",
"3 	c #6D6C5B",
"4 	c #B4B29B",
"5 	c #BDBAAA",
"6 	c #ABA98A",
"7 	c #6C6A4D",
"8 	c #484734",
"9 	c #797754",
"0 	c #4E4D39",
"a 	c #B8B6A4",
"b 	c #BCBAA2",
"c 	c #949274",
"d 	c #555443",
"e 	c #7B7972",
"f 	c #A5A384",
"g 	c #444332",
"h 	c #A4A28A",
"i 	c #54523C",
"j 	c #6B6A61",
"k 	c #C4C1B4",
"l 	c #8B887E",
"m 	c #B4B294",
"n 	c #A9A785",
"o 	c #9E9C7B",
"p 	c #9B9974",
"q 	c #A2A07F",
"r 	c #585742",
"s 	c #69675C",
"t 	c #C1BEB0",
"u 	c #83816C",
"v 	c #B0AE92",
"w 	c #898766",
"x 	c #706E62",
"y 	c #B4B1A3",
"z 	c #B8B79F",
"A 	c #65634C",
"B 	c #4B4A35",
"C 	c #706F53",
"D 	c #A29F83",
"E 	c #85835C",
"F 	c #525137",
"G 	c #5C5A43",
"H 	c #B1AE9C",
"I 	c #6D6B52",
"J 	c #757355",
"K 	c #A19F7C",
"L 	c #7C7A5C",
"M 	c #ADAA9A",
"N 	c #ACAA95",
"O 	c #908E76",
"P 	c #817F5F",
"Q 	c #807E62",
"R 	c #3B3A2A",
"S 	c #8B8967",
"T 	c #A6A490",
"U 	c #999780",
"V 	c #7A7856",
"W 	c #999773",
"X 	c #96946E",
"Y 	c #69674C",
"Z 	c #A29F8A",
"` 	c #908F6B",
" .	c #CBC9AB",
"..	c #42422F",
"+.	c #8C8A6B",
"@.	c #333326",
"#.	c #787760",
"$.	c #2B2A2C",
". . . + + + + . . . . . + + + . . . . ",
"@ @ @ # $ % & @ * * * @ # $ * = * * @ ",
"- ; > , ' ) @ > ! ! > ~ { ' , > ; - ; ",
"% # ] ^ / ( ^ _ : < [ } } | 1 ] % # # ",
"@ 2 3 4 5 6 7 8 7 9 0 3 a b c d e & & ",
") 3 4 b 6 6 f _ g 8 < a b h 6 c i j k ",
"l ^ c m n / 6 o _ ( b b o p q p r s t ",
"5 u i < 6 n o q n v v f o o w i x y a ",
"z o A B C o n o q D o o o E F G | 5 H ",
"H | < I B J o q q o o K L B G E D M M ",
"N O P Q 0 < f q q p p K 7 R : S | N T ",
"h U V G ( b m W K K p p X Y i Q D Z Z ",
"D [ 3 _ k b p X ` S W p p W r A [ D U ",
"D 1 '  .v p p : i i L p X X p ..d / | ",
"| A r c p p P i i 7 i 7 X X L g 1 c c ",
"+.+.A R L J B r X p Y 0 A 7 R A +.+.S ",
": S S J R R C X S : X V ..@.J S S S S ",
"#.#.L L : E #.#.L L L L : P L _ L L L ",
"$.$.$.. $.$.$.$.$.. $.. $.. $.$.$.$.$."};
