/* XPM */
static char * iconify_inactive_xpm[] = {
"19 19 91 1",
" 	c None",
".	c #282728",
"+	c #272728",
"@	c #272627",
"#	c #2B2A2B",
"$	c #CAC6C0",
"%	c #CCC8C2",
"&	c #CFCBC8",
"*	c #C7C3C0",
"=	c #C6C3BE",
"-	c #95928D",
";	c #74726D",
">	c #DED9D5",
",	c #D6D2CB",
"'	c #DAD6D0",
")	c #8E8C89",
"!	c #8B8A78",
"~	c #848273",
"{	c #656353",
"]	c #BCB9AB",
"^	c #939175",
"/	c #898765",
"(	c #858263",
"_	c #85836A",
":	c #95937B",
"<	c #B7B3A8",
"[	c #C9C5BE",
"}	c #817F71",
"|	c #A5A38A",
"1	c #5C5B49",
"2	c #88856C",
"3	c #757354",
"4	c #78765A",
"5	c #9D9B83",
"6	c #BEBBB0",
"7	c #C5C2B6",
"8	c #4E4D3A",
"9	c #6B694C",
"0	c #7B7957",
"a	c #7C7A5C",
"b	c #817F5D",
"c	c #C2BFB3",
"d	c #474734",
"e	c #74725C",
"f	c #82805F",
"g	c #706F4E",
"h	c #5B5A43",
"i	c #52513B",
"j	c #504F37",
"k	c #7D7B6C",
"l	c #B2AFA4",
"m	c #99967B",
"n	c #A2A185",
"o	c #716F52",
"p	c #605E44",
"q	c #59583E",
"r	c #817F6C",
"s	c #8B8973",
"t	c #888570",
"u	c #797764",
"v	c #9F9D90",
"w	c #ADAB8C",
"x	c #807E61",
"y	c #B0AF95",
"z	c #B8B697",
"A	c #A19F7C",
"B	c #6C6A5B",
"C	c #B9B6A4",
"D	c #9D9A75",
"E	c #7D7C66",
"F	c #A19F87",
"G	c #B6B49A",
"H	c #A8A684",
"I	c #A4A17C",
"J	c #989676",
"K	c #BBB999",
"L	c #9E9C7C",
"M	c #94926D",
"N	c #68664C",
"O	c #AEAB96",
"P	c #A8A590",
"Q	c #565543",
"R	c #787657",
"S	c #908E6B",
"T	c #4D4B37",
"U	c #918F67",
"V	c #908E73",
"W	c #8C8A6B",
"X	c #8B8965",
"Y	c #65644B",
"Z	c #504F3C",
".+@@.....@@@...#+++",
"$%&%*==*====***====",
"$-;-&>>>,,>>'''''''",
")!~{*]^/(_/:<%%[%%%",
"}^|12_333334(56[[[7",
"~^58900aa0abbb5]76c",
"}:5de(0(fffghijkl7]",
"kmn83aopqh94rst3uv<",
"~:weh90x_!:|yzzApBC",
"kszDE_FyzGywHIJI9{l",
"B_KFHwwHnALM(b^AN{O",
"u{2IIDDMa3gNhpomN1P",
"5BQRa03NiiqpabQS31F",
"m5r8TjiNfMDMUfNmoQL",
"JVVJWXWUXf//W/{2o1J",
"2XstW/xxXXXWS/QQYes",
"XXXX//XW/X//XbZ#QXW",
"xaxaxaaxbaxaxax/(ax",
"###################"};
