/* XPM */
static char * iconify_activedown_xpm[] = {
"19 19 196 2",
"  	c None",
". 	c #2A2A2B",
"+ 	c #2F2E30",
"@ 	c #E3DEDA",
"# 	c #E6E4DA",
"$ 	c #E9E4E0",
"% 	c #DFDFD1",
"& 	c #B2B0A8",
"* 	c #918F87",
"= 	c #B0ADA5",
"- 	c #EEEAE2",
"; 	c #FFFAF4",
"> 	c #FDF3FA",
", 	c #F3F3E5",
"' 	c #FBF5F1",
") 	c #F9F5EE",
"! 	c #A5A2AA",
"~ 	c #BDB96D",
"{ 	c #CFCD4E",
"] 	c #8F8D66",
"^ 	c #E2DED7",
"/ 	c #D1F1A5",
"( 	c #A5ED4A",
"_ 	c #9CF12C",
": 	c #98F222",
"< 	c #B2ED58",
"[ 	c #D0E8A4",
"} 	c #E9E5DC",
"| 	c #E4E1D4",
"1 	c #999796",
"2 	c #CBCB63",
"3 	c #EEEA5A",
"4 	c #858F40",
"5 	c #96FA1B",
"6 	c #89F400",
"7 	c #91F401",
"8 	c #95EB03",
"9 	c #BBE75F",
"0 	c #DCDACB",
"a 	c #E2E3CE",
"b 	c #9D9B8C",
"c 	c #E9E359",
"d 	c #7B8328",
"e 	c #86EA01",
"f 	c #91FD00",
"g 	c #9CF101",
"h 	c #A5F103",
"i 	c #AEFD02",
"j 	c #DFE9B8",
"k 	c #D9D6C6",
"l 	c #A19E82",
"m 	c #D2D25F",
"n 	c #A4FD00",
"o 	c #B3FA01",
"p 	c #BCFE02",
"q 	c #9DE100",
"r 	c #91D500",
"s 	c #75B000",
"t 	c #94A46B",
"u 	c #CCC5C8",
"v 	c #D6D2C2",
"w 	c #A3A27D",
"x 	c #E7E15B",
"y 	c #94E302",
"z 	c #8EAE00",
"A 	c #8FAD12",
"B 	c #93AF26",
"C 	c #A4B63C",
"D 	c #B6BD4F",
"E 	c #BEC255",
"F 	c #BFC14C",
"G 	c #AAA044",
"H 	c #A28F51",
"I 	c #BFB391",
"J 	c #A2A174",
"K 	c #CED05E",
"L 	c #FFF25C",
"M 	c #C2B02B",
"N 	c #88A319",
"O 	c #B0C833",
"P 	c #ADC652",
"Q 	c #A6B179",
"R 	c #CCB96F",
"S 	c #E3CB73",
"T 	c #F9E26E",
"U 	c #FEEE66",
"V 	c #FEEE55",
"W 	c #FDDA36",
"X 	c #A08E1A",
"Y 	c #89846D",
"Z 	c #D3CFC7",
"` 	c #FFFF62",
" .	c #FCE233",
"..	c #C9B638",
"+.	c #C0AF50",
"@.	c #DDC75F",
"#.	c #F2DF7D",
"$.	c #F4EC98",
"%.	c #FEE648",
"&.	c #FEDB2C",
"*.	c #FBD32C",
"=.	c #FFE126",
"-.	c #B99D2D",
";.	c #888270",
">.	c #C7C5B7",
",.	c #8B8767",
"'.	c #FFFF59",
").	c #FEF137",
"!.	c #FFEC3B",
"~.	c #FDE13A",
"{.	c #FEDE24",
"].	c #F7CA29",
"^.	c #E0B029",
"/.	c #DAAE2C",
"(.	c #C2912D",
"_.	c #847859",
":.	c #C5C3AB",
"<.	c #8D8C7D",
"[.	c #988C46",
"}.	c #E0C531",
"|.	c #F6C32A",
"1.	c #CFA932",
"2.	c #C9A427",
"3.	c #BE9D1E",
"4.	c #AD981A",
"5.	c #A79519",
"6.	c #BE9A24",
"7.	c #FFBF30",
"8.	c #BE8B26",
"9.	c #BFBDA3",
"0.	c #B7B499",
"a.	c #847C35",
"b.	c #CABB20",
"c.	c #D3B027",
"d.	c #D3AE28",
"e.	c #CBAE28",
"f.	c #B59F23",
"g.	c #9D921F",
"h.	c #98960E",
"i.	c #AAAD04",
"j.	c #CEDD00",
"k.	c #C7DD03",
"l.	c #837C2A",
"m.	c #E8AC36",
"n.	c #79725C",
"o.	c #BAB79A",
"p.	c #ADAB8B",
"q.	c #B3AB99",
"r.	c #99A375",
"s.	c #6B941F",
"t.	c #76930B",
"u.	c #7D9208",
"v.	c #799712",
"w.	c #96B70F",
"x.	c #D2E700",
"y.	c #ECFD00",
"z.	c #F5FE00",
"A.	c #F0F601",
"B.	c #D4EC02",
"C.	c #918D36",
"D.	c #B9883A",
"E.	c #6D7264",
"F.	c #B4B092",
"G.	c #A7A486",
"H.	c #B1BB73",
"I.	c #B5EA23",
"J.	c #CDFD01",
"K.	c #D6F900",
"L.	c #D2F200",
"M.	c #CFF000",
"N.	c #D2ED0C",
"O.	c #BDD425",
"P.	c #927E41",
"Q.	c #E99734",
"R.	c #B38138",
"S.	c #A8A585",
"T.	c #9F9B83",
"U.	c #9D9A7A",
"V.	c #A5B94F",
"W.	c #AED721",
"X.	c #B8E40E",
"Y.	c #C1E50D",
"Z.	c #C5E211",
"`.	c #AEBB5A",
" +	c #9B967C",
".+	c #89663C",
"++	c #B56E1D",
"@+	c #9D7638",
"#+	c #80846A",
"$+	c #9E9C75",
"%+	c #A19F69",
"&+	c #95936C",
"*+	c #696348",
"=+	c #58513D",
"-+	c #8F8D68",
";+	c #918F6A",
". . . . . . . . . . + . . . . . . . . ",
"@ # $ $ # @ @ % @ @ % @ % % @ @ @ @ @ ",
"$ & * = - ; > > , , > > ' ) ' ) ) ) ) ",
"! ~ { ] ^ / ( _ : : _ < [ $ } - # | - ",
"1 2 3 4 _ 5 6 6 7 7 6 8 : 9 0 # a ^ # ",
"b 2 c d e f g h h h h h h i < j ^ k 0 ",
"l m c d 8 n h o o p o q r s s t u ^ v ",
"w m x d y o h r z A B C D E F G H I k ",
"J K L M N B O P Q ~ R S T U V W X Y Z ",
"J 2 `  ...+.@.#.$.U V %. .&.*.=.-.;.>.",
",.D '. .).!.~. .=.{.{.].^./.].*.(._.:.",
"<.[.}. . . .&.|./.1.2.3.4.5.6.7.8._.9.",
"0.Y a.b.c.d.e.f.X g.h.i.j.k.l.m.(.n.o.",
"p.q.r.s.t.u.v.w.x.y.z.A.y.B.C.m.D.E.F.",
"G.l l H.I.p J.K.L.M.B.B.N.O.P.Q.R.E.S.",
"l l l T.U.V.W.X.Y.Z.Y.O.`. +.+++@+#+G.",
"$+$+$+$+$+$+T.U.%+%+U. +$+&+*+=+_.J $+",
"-+-+-+-+-+-+] -+-+-+] ;+;+;+;+&+-+-+-+",
"+ + + + + + + + + + + + + . + + + + + "};
