/* XPM */
static char * iconify_activeup_xpm[] = {
"19 19 187 2",
"  	c None",
". 	c #2A2A2B",
"+ 	c #E3DEDB",
"@ 	c #E7E3DC",
"# 	c #EDE9E3",
"$ 	c #EAE5E0",
"% 	c #DFDDD8",
"& 	c #A9A7A0",
"* 	c #84827A",
"= 	c #F0EDE3",
"- 	c #FFFBFA",
"; 	c #FBF8F7",
"> 	c #F6F3EB",
", 	c #FCF6F1",
"' 	c #F9F5EE",
") 	c #9E9BA4",
"! 	c #B6B55B",
"~ 	c #C5C535",
"{ 	c #7F7B4F",
"] 	c #ADD0A7",
"^ 	c #50A04A",
"/ 	c #2D932A",
"( 	c #249121",
"_ 	c #249822",
": 	c #5DA858",
"< 	c #E4E0D5",
"[ 	c #EAE3DC",
"} 	c #8F8D8F",
"| 	c #C8B943",
"1 	c #EDE93F",
"2 	c #65702D",
"3 	c #44993E",
"4 	c #1A911C",
"5 	c #028400",
"6 	c #D6D8C9",
"7 	c #E3DED6",
"8 	c #949383",
"9 	c #CAC649",
"0 	c #E8D540",
"a 	c #4A6014",
"b 	c #027800",
"c 	c #028C01",
"d 	c #029202",
"e 	c #089403",
"f 	c #039B01",
"g 	c #55B54A",
"h 	c #CEDAB9",
"i 	c #D6D7C8",
"j 	c #DEDACD",
"k 	c #969679",
"l 	c #505F0E",
"m 	c #02A300",
"n 	c #007100",
"o 	c #005B00",
"p 	c #628C66",
"q 	c #CBCAC2",
"r 	c #E2DECD",
"s 	c #D8D3C4",
"t 	c #9A996D",
"u 	c #CDC443",
"v 	c #F1D144",
"w 	c #686712",
"x 	c #026E00",
"y 	c #177409",
"z 	c #347D16",
"A 	c #628F2A",
"B 	c #839939",
"C 	c #949B41",
"D 	c #9B983C",
"E 	c #8F812C",
"F 	c #8E855F",
"G 	c #B4B3AA",
"H 	c #D4D0BD",
"I 	c #FFDF47",
"J 	c #B59C1C",
"K 	c #3D710B",
"L 	c #589026",
"M 	c #739433",
"N 	c #B0A14D",
"O 	c #D0A554",
"P 	c #F1B557",
"Q 	c #FECA55",
"R 	c #FED34B",
"S 	c #FECB3D",
"T 	c #FDB61A",
"U 	c #966714",
"V 	c #797569",
"W 	c #9B9764",
"X 	c #C3AC40",
"Y 	c #FFE349",
"Z 	c #F7CA23",
"` 	c #CC9F22",
" .	c #CE9F3C",
"..	c #EDB751",
"+.	c #FED553",
"@.	c #FEBD2E",
"#.	c #FEBD24",
"$.	c #FFB415",
"%.	c #F2AC11",
"&.	c #FEB915",
"*.	c #AE7107",
"=.	c #7D6D4E",
"-.	c #CDCBB5",
";.	c #817A59",
">.	c #B49A33",
",.	c #FFE03E",
"'.	c #FCC420",
").	c #FED025",
"!.	c #FFCE2E",
"~.	c #FDC52F",
"{.	c #FEBB1A",
"].	c #F7A313",
"^.	c #E78C0F",
"/.	c #E28A10",
"(.	c #81704C",
"_.	c #C5C4AC",
":.	c #868675",
"<.	c #8B7432",
"[.	c #DAA41A",
"}.	c #FFC31E",
"|.	c #F9A917",
"1.	c #DE8E14",
"2.	c #B36E16",
"3.	c #A38613",
"4.	c #85800F",
"5.	c #5B6F07",
"6.	c #AD740B",
"7.	c #FCA513",
"8.	c #AE6F0A",
"9.	c #74674B",
"0.	c #BBB59A",
"a.	c #6C5E24",
"b.	c #A98B0E",
"c.	c #C08C13",
"d.	c #AA8410",
"e.	c #83770B",
"f.	c #5D7107",
"g.	c #216402",
"h.	c #00B300",
"i.	c #02AA01",
"j.	c #4A5A18",
"k.	c #E5861F",
"l.	c #6B664F",
"m.	c #ACAA8C",
"n.	c #879575",
"o.	c #18581B",
"p.	c #105900",
"q.	c #0A5E00",
"r.	c #026500",
"s.	c #00CA00",
"t.	c #06D301",
"u.	c #4F6824",
"v.	c #E78429",
"w.	c #AC6A23",
"x.	c #626757",
"y.	c #B5B294",
"z.	c #AAA486",
"A.	c #A4A07D",
"B.	c #AEA987",
"C.	c #95AF74",
"D.	c #2CAC23",
"E.	c #08B005",
"F.	c #01BB00",
"G.	c #00C100",
"H.	c #0DB90D",
"I.	c #31A725",
"J.	c #705B2A",
"K.	c #E27118",
"L.	c #A46826",
"M.	c #636E62",
"N.	c #A29D7B",
"O.	c #9D9B76",
"P.	c #659E4E",
"Q.	c #10A80C",
"R.	c #0FAF0C",
"S.	c #12B00E",
"T.	c #71AB5C",
"U.	c #7F4C29",
"V.	c #9F4B01",
"W.	c #8D632D",
"X.	c #8C9D6A",
"Y.	c #4B4E4B",
"Z.	c #47422E",
"`.	c #726F52",
" +	c #918F6A",
".+	c #8E8D69",
"++	c #2F2E30",
". . . . . . . . . . . . . . . . . . . ",
"+ @ # $ % % % % % % % % % % % + + + @ ",
"@ & * & = - - ; # > ; - , > , ' ' ' ' ",
") ! ~ { % ] ^ / ( _ / : ] # @ < @ [ @ ",
"} | 1 2 3 4 5 5 5 5 5 5 4 : 6 [ 7 < < ",
"8 9 0 a b 5 c d c c e e d f g h [ i j ",
"k 9 1 l 5 d e f m m f c n o o p q r s ",
"t u v w 5 f c n x y z A B C D E F G H ",
"t | I J K z L M C N O P Q R S T U V H ",
"W X Y Z `  ...Q +.R S @.#.$.%.&.*.=.-.",
";.>.,.'.).!.~.~.{.&.&.].^./.].$.*.(._.",
":.<.[.'.}.{.&.|.1.2.3.4.5.5.6.7.8.9._.",
"0.V a.b.c.c.d.e.f.g.x c h.i.j.k.2.l.0.",
"m.0.n.o.p.q.r.c h.s.t.t.s.h.u.v.w.x.y.",
"z.A.B.C.D.E.F.F.h.F.G.F.H.I.J.K.L.M.B.",
"A.N.O.z.O.P.I.Q.R.S.R.D.T.N.U.V.W.V A.",
"O.O.O.O.O.O.N.O.X.X.O.N.N.W Y.Z.`.O.O.",
" + +.+.+.+.+.+.+.+.+.+.+.+.+ + + +.+ +",
"++++++++++++++++++++++++++++++++++++++"};
