/* XPM */
static char * maximize_activedown_xpm[] = {
"19 19 201 2",
"  	c None",
". 	c #2B2A2B",
"+ 	c #E3DEDB",
"@ 	c #EAE5DC",
"# 	c #EBE6E4",
"$ 	c #D7D4D0",
"% 	c #F9F5EE",
"& 	c #F6F2EC",
"* 	c #FFFBF2",
"= 	c #B2AFB1",
"- 	c #999782",
"; 	c #A8A775",
"> 	c #A9A973",
", 	c #E5E1DA",
"' 	c #B3B1AE",
") 	c #92926D",
"! 	c #C2C379",
"~ 	c #E5E587",
"{ 	c #E1E276",
"] 	c #E3E367",
"^ 	c #E2E15B",
"/ 	c #E7E357",
"( 	c #C2C053",
"_ 	c #8B9164",
": 	c #EFEBE0",
"< 	c #E4E1D5",
"[ 	c #B4B3A4",
"} 	c #A2A164",
"| 	c #DFE172",
"1 	c #FEFE72",
"2 	c #FFFF66",
"3 	c #FEFD5D",
"4 	c #FEFE4B",
"5 	c #FFED3A",
"6 	c #D6C833",
"7 	c #9D9443",
"8 	c #AFAC9C",
"9 	c #ECE8D8",
"0 	c #A4A297",
"a 	c #989955",
"b 	c #EAE15B",
"c 	c #AAA440",
"d 	c #95912D",
"e 	c #8C9A24",
"f 	c #DDBC35",
"g 	c #FEF93F",
"h 	c #FDF13C",
"i 	c #EED42B",
"j 	c #8E8750",
"k 	c #A4A5A6",
"l 	c #DCD8CB",
"m 	c #B1B269",
"n 	c #CDC941",
"o 	c #B2AE40",
"p 	c #83A318",
"q 	c #76B806",
"r 	c #8DCE07",
"s 	c #97D503",
"t 	c #9CD201",
"u 	c #96C30A",
"v 	c #8AB211",
"w 	c #9DA224",
"x 	c #D4BD38",
"y 	c #FFEE35",
"z 	c #CDB62F",
"A 	c #9F9457",
"B 	c #D9D5C4",
"C 	c #8B8E7E",
"D 	c #6A990E",
"E 	c #83D200",
"F 	c #AAFF00",
"G 	c #81B200",
"H 	c #96C500",
"I 	c #C1FA00",
"J 	c #ACF300",
"K 	c #82AB07",
"L 	c #E4CA34",
"M 	c #FADE36",
"N 	c #FFE72E",
"O 	c #B09E35",
"P 	c #9E9C75",
"Q 	c #73712E",
"R 	c #7B9D19",
"S 	c #97ED00",
"T 	c #98A63D",
"U 	c #ADB143",
"V 	c #858F24",
"W 	c #BAD207",
"X 	c #D4FC00",
"Y 	c #A5B106",
"Z 	c #948B26",
"` 	c #F4DA32",
" .	c #B59C2B",
"..	c #8F8C69",
"+.	c #D1CDBB",
"@.	c #8B8461",
"#.	c #506412",
"$.	c #86B80A",
"%.	c #A3A851",
"&.	c #E3DA87",
"*.	c #F8EA5B",
"=.	c #BA9E3E",
"-.	c #948E17",
";.	c #CCDF00",
">.	c #C4DC02",
",.	c #818918",
"'.	c #EAD139",
").	c #FEE534",
"!.	c #B7931E",
"~.	c #8E825E",
"{.	c #CBC9B4",
"].	c #90877D",
"^.	c #74952C",
"/.	c #99EC00",
"(.	c #A0E701",
"_.	c #6E8A19",
":.	c #D6DA67",
"<.	c #FFF731",
"[.	c #918322",
"}.	c #AAA80A",
"|.	c #E0E700",
"1.	c #A1AA12",
"2.	c #DBC349",
"3.	c #FFD939",
"4.	c #BA9321",
"5.	c #857D60",
"6.	c #C2C0A6",
"7.	c #BEB4A8",
"8.	c #B0CD69",
"9.	c #A8F613",
"0.	c #799C11",
"a.	c #C5B63D",
"b.	c #E9C432",
"c.	c #94831E",
"d.	c #BCBC07",
"e.	c #DCC256",
"f.	c #FFCF38",
"g.	c #AE892A",
"h.	c #78776B",
"i.	c #B9B89B",
"j.	c #B3AF97",
"k.	c #AFB387",
"l.	c #A9D644",
"m.	c #A4F500",
"n.	c #949B18",
"o.	c #DBB92D",
"p.	c #CBA828",
"q.	c #B1A70B",
"r.	c #F0F100",
"s.	c #CDD703",
"t.	c #898B24",
"u.	c #F6CE58",
"v.	c #E1A62A",
"w.	c #92783A",
"x.	c #949584",
"y.	c #ADAB8C",
"z.	c #AFA598",
"A.	c #ABB574",
"B.	c #A9E41D",
"C.	c #B8FC00",
"D.	c #879D0A",
"E.	c #838413",
"F.	c #898D10",
"G.	c #E6EF01",
"H.	c #EAF800",
"I.	c #B0BA12",
"J.	c #A8913E",
"K.	c #EEB23A",
"L.	c #906D2A",
"M.	c #7F795D",
"N.	c #B8B596",
"O.	c #A7A485",
"P.	c #AADA25",
"Q.	c #B8F205",
"R.	c #C9FB01",
"S.	c #E2FC00",
"T.	c #D5EC01",
"U.	c #A18F22",
"V.	c #D5A336",
"W.	c #9B7228",
"X.	c #81795A",
"Y.	c #969882",
"Z.	c #9B9B7C",
"`.	c #A6A37E",
" +	c #A5BB4F",
".+	c #AED620",
"++	c #BEE20C",
"@+	c #A6C203",
"#+	c #6D790C",
"$+	c #907720",
"%+	c #7E652D",
"&+	c #949573",
"*+	c #A29F74",
"=+	c #9A947C",
"-+	c #989A64",
";+	c #49412D",
">+	c #6D5828",
",+	c #75673A",
"'+	c #6A6A55",
")+	c #918F6B",
"!+	c #2F2E30",
". . . . . . . . . . . . . . . . . . . ",
"+ + + + + @ # + # # # # @ $ + + + + + ",
"% & % * & = - ; > > ; - = & * % % % % ",
", @ , ' ) ! ~ { ] ^ ^ / ( _ = + : , @ ",
"< $ [ } | 1 2 3 3 4 4 4 5 6 7 8 $ < < ",
"9 0 a 3 b c d e e d f 5 g h i j k @ l ",
"= m n o p q r s t u v w x h y z A [ B ",
"C a 6 D E F s G H I J K e L M N O C B ",
"P Q R S J v T ( U V W X Y Z ` y  ...+.",
"@.#.q F $.%.&.~ *.=.-.;.>.,.'.).!.~.{.",
"].^./.(._.:.1 5 y <.[.}.|.1.2.3.4.5.6.",
"7.8.9./.0.a.5 N ).b.c.d.|.1.e.f.g.h.i.",
"j.k.l.m.t n. .o.p.Z q.r.s.t.u.v.w.x.i.",
"y.z.A.B.C.t D.E.F.Y G.H.I.J.K.L.M.N.y.",
"O.O.O.A.P.Q.R.X S.S.T.Y U.V.W.X.Y.O.O.",
"Z.`.Z.Z.`. +.+++++@+#+$+g.%+h.&+`.Z.`.",
"P P P *+P P =+`.-+;+>+,+'+&+*+*+P P P ",
"..................) ) ) ) )+)+........",
"!+!+!+!+!+!+. !+!+!+!+. !+. !+. !+!+!+"};
