/* XPM */
static char * title_inactive_xpm[] = {
"3 19 18 1",
" 	c None",
".	c #2A2A2B",
"+	c #C7C3BD",
"@	c #DAD6D0",
"#	c #CCC8C1",
"$	c #BDBAAC",
"%	c #C2BFB4",
"&	c #B8B5A5",
"*	c #B2AF9F",
"=	c #ADAA98",
"-	c #A7A591",
";	c #A29F8A",
">	c #9D9A82",
",	c #98957B",
"'	c #929074",
")	c #8C8A6D",
"!	c #8A8867",
"~	c #7D7B5C",
"...",
"+++",
"@@@",
"###",
"+++",
"$%%",
"$$$",
"&&&",
"***",
"===",
"---",
";;;",
">>>",
",,,",
"'''",
")))",
"!!)",
"~~~",
"..."};
