/* XPM */
static char * titlert_active_xpm[] = {
"12 19 105 2",
"  	c None",
". 	c #322F32",
"+ 	c #323132",
"@ 	c #2C2B2A",
"# 	c #1C6C0C",
"$ 	c #26561B",
"% 	c #292728",
"& 	c #756E71",
"* 	c #D3D0CB",
"= 	c #EAE5E2",
"- 	c #DEDCD1",
"; 	c #E3E0D5",
"> 	c #E3DEDB",
", 	c #1C8601",
"' 	c #1D730C",
") 	c #2B4127",
"! 	c #958F8F",
"~ 	c #EEECE3",
"{ 	c #FAF6F0",
"] 	c #F9F4EE",
"^ 	c #228D00",
"/ 	c #236E09",
"( 	c #2A3A23",
"_ 	c #A9A2A2",
": 	c #FDFAEE",
"< 	c #E9E5DC",
"[ 	c #2B8E00",
"} 	c #359E00",
"| 	c #1F460B",
"1 	c #797173",
"2 	c #329300",
"3 	c #2D640C",
"4 	c #5D6255",
"5 	c #BDB9B2",
"6 	c #DBD7CB",
"7 	c #DEDACD",
"8 	c #399700",
"9 	c #3B9A00",
"0 	c #2E7107",
"a 	c #56644A",
"b 	c #B3ADA8",
"c 	c #D6D2C2",
"d 	c #429B00",
"e 	c #47A800",
"f 	c #B9B5A8",
"g 	c #D2D1B9",
"h 	c #D2CDBD",
"i 	c #4DA302",
"j 	c #284412",
"k 	c #CAC6B3",
"l 	c #CCC8B5",
"m 	c #52A300",
"n 	c #51AA00",
"o 	c #386C0D",
"p 	c #404637",
"q 	c #A29E86",
"r 	c #C2BFAA",
"s 	c #C5C2AD",
"t 	c #BEBCA4",
"u 	c #5EAB00",
"v 	c #497F0F",
"w 	c #3F4234",
"x 	c #817B72",
"y 	c #BCB99C",
"z 	c #6AAE02",
"A 	c #313E25",
"B 	c #6F6A68",
"C 	c #BBB896",
"D 	c #B9B69C",
"E 	c #5F9B09",
"F 	c #363E2A",
"G 	c #999382",
"H 	c #A8A585",
"I 	c #B5B294",
"J 	c #6FB200",
"K 	c #7D796D",
"L 	c #B0AE8E",
"M 	c #979182",
"N 	c #9F9A8E",
"O 	c #76B600",
"P 	c #7DBC00",
"Q 	c #4D6519",
"R 	c #494741",
"S 	c #98957E",
"T 	c #464F34",
"U 	c #575649",
"V 	c #8B8972",
"W 	c #85B603",
"X 	c #39412C",
"Y 	c #393931",
"Z 	c #4D6B1F",
"` 	c #68A703",
" .	c #3E3E3B",
"..	c #9B9A79",
"+.	c #89C400",
"@.	c #90CE00",
"#.	c #86BA02",
"$.	c #79AC05",
"%.	c #8ECC00",
"&.	c #888667",
"*.	c #587116",
"=.	c #373438",
"-.	c #8A8865",
";.	c #302F2F",
">.	c #2F2D25",
". + + @ @ @ @ @ @ @ @ @ ",
"# $ % & * = - ; > > > > ",
", , ' ) ! ~ { ] ] ] ] ] ",
"^ ^ ^ / ( _ : ; < < < < ",
"[ [ [ } | 1 - ; ; ; ; ; ",
"2 2 2 } 3 4 5 ; 6 7 7 7 ",
"8 8 8 9 0 a b 7 c * * * ",
"d d d e 3 4 f g h h h h ",
"d i d i j & h k l l l h ",
"i m n o p q g r s t s s ",
"u u v w x r t r t y t t ",
"u z A B C y D D D y D f ",
"z E F G C H I D D I I I ",
"J z F K I I L q M N L L ",
"O P Q R x S x a T U V H ",
"P P W Q F X Y Z ` Q  ...",
"+.+.+.@.#.$.+.%.%.$.p &.",
"#.W #.W #.#.W #.W *.=.-.",
";.;.>.>.>.>.>.>.@ . ;.. "};
