/* XPM */
static char * titleunder_inactive_xpm[] = {
"3 19 7 1",
" 	c None",
".	c #2A2A2A",
"+	c #434343",
"@	c #4A4B4A",
"#	c #535353",
"$	c #5B5B5B",
"%	c #626262",
"...",
"+++",
"+++",
"+++",
"++@",
"@@@",
"@@@",
"@@+",
"@#@",
"###",
"###",
"###",
"$#$",
"$#$",
"$$$",
"%$$",
"%%%",
"$$$",
"..."};
