/* XPM */
static char * titlert_inactive_xpm[] = {
"12 19 57 1",
" 	c None",
".	c #323232",
"+	c #302F2F",
"@	c #2B2B2B",
"#	c #262727",
"$	c #383836",
"%	c #282727",
"&	c #646363",
"*	c #B9B6B3",
"=	c #D1CEC7",
"-	c #C2BFB3",
";	c #C7C3C0",
">	c #444444",
",	c #7F7E79",
"'	c #DAD6D0",
")	c #918F89",
"!	c #C8C4BD",
"~	c #CCC8C2",
"{	c #4B4C4B",
"]	c #4F504E",
"^	c #C3C0B6",
"/	c #474847",
"(	c #545453",
"_	c #A6A492",
":	c #3F3F40",
"<	c #9A978D",
"[	c #BCB9AC",
"}	c #A19F92",
"|	c #B8B5A5",
"1	c #66645B",
"2	c #B6B4A2",
"3	c #B2AF9E",
"4	c #AEAB9A",
"5	c #B3B09F",
"6	c #40403A",
"7	c #3B3B3B",
"8	c #888779",
"9	c #A8A692",
"0	c #ABA997",
"a	c #747165",
"b	c #A19E85",
"c	c #A6A38B",
"d	c #A19E88",
"e	c #8A8774",
"f	c #97947C",
"g	c #9D9A82",
"h	c #5C5C5C",
"i	c #716F5E",
"j	c #9E9B7F",
"k	c #9A977C",
"l	c #8D8A72",
"m	c #86846B",
"n	c #74725C",
"o	c #525144",
"p	c #4C4B43",
"q	c #7A7864",
"r	c #918F73",
".+.@@@@#@###",
"$$%&*=-;;;;;",
">>>.,=''''''",
">>>$@)'!~~~~",
">>{]@&-!^!!!",
"/{{{$(_-----",
"{{{{:]<-[[[*",
"{{{]$(}[||||",
"{]{(@1234355",
"(((678290400",
"((/.a___999_",
"](.1bcdddddd",
"(].ecfggbbgg",
"hh.ijjklmekf",
"h&77imno7pqr",
"h(h7..@:(>$m",
"&&h&&hh&&($n",
"hhhhhhhhh7$n",
"%@@@@@@@@.@@"};
