/* XPM */
static char * title_active_xpm[] = {
"3 19 20 1",
" 	c None",
".	c #2A292A",
"+	c #E3DEDB",
"@	c #F9F5EE",
"#	c #E9E5DC",
"$	c #E3E0D6",
"%	c #DDDACD",
"&	c #D8D4C5",
"*	c #D2CEBD",
"=	c #CCC8B5",
"-	c #C5C3AD",
";	c #BFBDA5",
">	c #B9B79D",
",	c #B4B195",
"'	c #AEAB8D",
")	c #A7A485",
"!	c #A09E7D",
"~	c #9E9C76",
"{	c #8F8D69",
"]	c #2F2E30",
"...",
"+++",
"@@@",
"###",
"$$$",
"%%%",
"&&&",
"***",
"===",
"---",
";;;",
">>>",
",,,",
"'''",
")))",
"!!!",
"~~~",
"{{{",
"]]]"};
