/* XPM */
static char *dummy[]={
"48 22 2 1",
". c None",
"# c #808080",
"................................................",
"................................................",
"................................................",
"................................................",
"................################................",
"...........##########################...........",
".......##################################.......",
".....######################################.....",
"...##########################################...",
"..############################################..",
".##############################################.",
"################################################",
"################################################",
"################################################",
"################################################",
".##############################################.",
"..############################################..",
"...##########################################...",
".....######################################.....",
".......##################################.......",
"...........##########################...........",
"................################................"};
