/* XPM */
static char * close_activeup_xpm[] = {
"19 19 197 2",
"  	c None",
". 	c #2B2A2B",
"+ 	c #E2DEDA",
"@ 	c #E5E1DB",
"# 	c #EEE9E6",
"$ 	c #DFDBDA",
"% 	c #DFDCD6",
"& 	c #F7F3EC",
"* 	c #FAF5EE",
"= 	c #CECBC2",
"- 	c #7A7851",
"; 	c #8C897A",
"> 	c #FBF8F7",
", 	c #F3F0E7",
"' 	c #FFFDFC",
") 	c #BAB7AC",
"! 	c #797F63",
"~ 	c #D1CDBC",
"{ 	c #FEF9EF",
"] 	c #E9E5DC",
"^ 	c #ADAAAE",
"/ 	c #837D64",
"( 	c #D1C840",
"_ 	c #BBAF35",
": 	c #5B7935",
"< 	c #23832D",
"[ 	c #279A22",
"} 	c #249020",
"| 	c #329E31",
"1 	c #42793B",
"2 	c #968C43",
"3 	c #776E37",
"4 	c #AAA69F",
"5 	c #929184",
"6 	c #858650",
"7 	c #E5E46F",
"8 	c #FDFA55",
"9 	c #FDEC34",
"0 	c #9E9416",
"a 	c #225702",
"b 	c #028002",
"c 	c #009400",
"d 	c #025603",
"e 	c #728B30",
"f 	c #F4F065",
"g 	c #FDE64E",
"h 	c #DBB924",
"i 	c #786624",
"j 	c #8D8D85",
"k 	c #E4E1D5",
"l 	c #878374",
"m 	c #939536",
"n 	c #F6F752",
"o 	c #FBE53A",
"p 	c #FFE432",
"q 	c #B3A123",
"r 	c #1E4E09",
"s 	c #045F05",
"t 	c #8A9E3D",
"u 	c #FFD565",
"v 	c #F5C528",
"w 	c #FFD629",
"x 	c #E4BB1E",
"y 	c #846209",
"z 	c #847661",
"A 	c #E1EAD7",
"B 	c #9C9B90",
"C 	c #DEC932",
"D 	c #F6DA2D",
"E 	c #FFE62F",
"F 	c #F3D127",
"G 	c #E4D76C",
"H 	c #FEE35A",
"I 	c #FBCB23",
"J 	c #FEC52C",
"K 	c #F2B81E",
"L 	c #89640F",
"M 	c #7B7467",
"N 	c #DEE0CE",
"O 	c #E3D2C6",
"P 	c #79906D",
"Q 	c #516510",
"R 	c #CAA622",
"S 	c #FDDD2C",
"T 	c #FDD325",
"U 	c #FFD948",
"V 	c #FECA44",
"W 	c #FCC322",
"X 	c #FDCA1E",
"Y 	c #E9A220",
"Z 	c #7D5D1E",
"` 	c #CDC9BE",
" .	c #72AC68",
"..	c #007200",
"+.	c #3A650B",
"@.	c #C0991E",
"#.	c #FACD2A",
"$.	c #FDBB21",
"%.	c #FCBC1C",
"&.	c #D79717",
"*.	c #5D5E08",
"=.	c #116F08",
"-.	c #78B273",
";.	c #C8C7B0",
">.	c #D9C7C2",
",.	c #65AA56",
"'.	c #008C00",
").	c #255E04",
"!.	c #AD9517",
"~.	c #FDC21F",
"{.	c #CC8008",
"].	c #405C06",
"^.	c #00A600",
"/.	c #74BB67",
"(.	c #D4C2C6",
"_.	c #C2C2B5",
":.	c #CDBDB3",
"<.	c #65A354",
"[.	c #006C00",
"}.	c #9C9633",
"|.	c #FEC439",
"1.	c #FAB218",
"2.	c #FFB817",
"3.	c #104A00",
"4.	c #00B000",
"5.	c #0AB207",
"6.	c #B8B8A9",
"7.	c #C0B29E",
"8.	c #80AF6B",
"9.	c #159016",
"0.	c #F5C96B",
"a.	c #FAAB1C",
"b.	c #FCB316",
"c.	c #FA9D12",
"d.	c #A97009",
"e.	c #1A6900",
"f.	c #8CBA74",
"g.	c #B3B293",
"h.	c #8CA477",
"i.	c #587E3F",
"j.	c #877F3E",
"k.	c #FFBD50",
"l.	c #FDAB13",
"m.	c #F59D12",
"n.	c #EE9310",
"o.	c #FCA511",
"p.	c #FA9C0C",
"q.	c #975C05",
"r.	c #666F36",
"s.	c #8FA17C",
"t.	c #BBB899",
"u.	c #716D53",
"v.	c #816D32",
"w.	c #FEB249",
"x.	c #FFA90F",
"y.	c #DD8E11",
"z.	c #6E5C04",
"A.	c #714308",
"B.	c #655A46",
"C.	c #ACA98B",
"D.	c #E39A26",
"E.	c #606202",
"F.	c #4C6A00",
"G.	c #C26800",
"H.	c #FF9406",
"I.	c #FC8F05",
"J.	c #D17400",
"K.	c #726847",
"L.	c #A9A784",
"M.	c #A6A383",
"N.	c #A19F7D",
"O.	c #9E9C76",
"P.	c #6F6D58",
"Q.	c #634514",
"R.	c #CD7D0A",
"S.	c #59510F",
"T.	c #08710E",
"U.	c #12C00B",
"V.	c #15B90C",
"W.	c #098E13",
"X.	c #4C5F11",
"Y.	c #BA5F04",
"Z.	c #5A3811",
"`.	c #9D9E80",
" +	c #9D9C7C",
".+	c #888271",
"++	c #573F1B",
"@+	c #4A3519",
"#+	c #A1A477",
"$+	c #7A9E63",
"%+	c #899B68",
"&+	c #928D6F",
"*+	c #524F2E",
"=+	c #9B986E",
"-+	c #8E8D69",
";+	c #94916D",
">+	c #2F2E30",
". . . . . . . . . . . . . . . . . . . ",
"+ + + @ # # $ % % % % $ @ # + + + + + ",
"& * * = - ; $ > # , > ' ) ! ~ { * & * ",
"] ] ^ / ( _ : < [ } | 1 2 ( 3 4 ] ] ] ",
"% 5 6 7 8 9 0 a b c d e f g h i j + k ",
"l m n 8 o 9 p q r s t u f v w x y z A ",
"B 2 C 9 p D E F q 2 G H v I J K L M N ",
"O P Q R S S F T S U V W X W Y Z ! ` ` ",
"O  ...+.@.#.T W W W $.%.%.&.*.=.-.O ;.",
">.,.'.b ).!.$.W ~.%.K $.{.].b ^./.(._.",
":.<.c '.[.}.|.~.%.1.1.2.!.3.4.5. .:.6.",
"7.8.9.=.2 0.V a.2.2.1.b.c.d.e.[ f.7.g.",
"6.h.i.j.0.k.a.l.m.n.o.o.o.p.q.r.s.7.g.",
"t.u.v.u w.a.x.y.y z.{.p.p.p.p.A.B.g.C.",
"C.u.L D.l.l.{.E.[.'.F.G.H.I.J.A.K.L.M.",
"N.O.P.Q.R.R.S.T.U.V.W.X.Y.G.Z.P.`.`. +",
"O.N. +.+++@+/ #+$+%+#+&+*+@+.+O.=+O.O.",
"&+-+-+;+;+;+;+-+;+-+-+-+&+;+;+-+-+-+-+",
">+>+>+. >+>+>+>+>+. >+>+>+. >+>+>+>+>+"};
