/* XPM */
static char * maximize_activeup_xpm[] = {
"19 19 191 2",
"  	c None",
". 	c #2A2A2B",
"+ 	c #E3DEDA",
"@ 	c #EDE8E4",
"# 	c #ECE6E6",
"$ 	c #E6E2DB",
"% 	c #E9E5DE",
"& 	c #D8D5D3",
"* 	c #F9F5EE",
"= 	c #F6F2ED",
"- 	c #FFFBF2",
"; 	c #F4EFEC",
"> 	c #AAA7AC",
", 	c #8C8973",
"' 	c #9F9E5C",
") 	c #989368",
"! 	c #ADAAAB",
"~ 	c #888759",
"{ 	c #BCBC5C",
"] 	c #E1E268",
"^ 	c #DBDB55",
"/ 	c #DFDB48",
"( 	c #DFD843",
"_ 	c #E6D542",
": 	c #BBAB3B",
"< 	c #837A4D",
"[ 	c #E5E2D5",
"} 	c #ABA893",
"| 	c #98994E",
"1 	c #FDFD54",
"2 	c #FEFC4B",
"3 	c #FFFB3D",
"4 	c #FDF337",
"5 	c #FFEA34",
"6 	c #FBDA29",
"7 	c #CFB11D",
"8 	c #917127",
"9 	c #A4A593",
"0 	c #EDE9DB",
"a 	c #9D9B90",
"b 	c #8C8E41",
"c 	c #F7F446",
"d 	c #FBD329",
"e 	c #889137",
"f 	c #646F10",
"g 	c #58740D",
"h 	c #607213",
"i 	c #777712",
"j 	c #CBA522",
"k 	c #FFE12B",
"l 	c #E4BE1A",
"m 	c #7B6826",
"n 	c #9A958B",
"o 	c #DBD7CA",
"p 	c #A7A75B",
"q 	c #C6BD28",
"r 	c #A2992A",
"s 	c #3B6C0A",
"t 	c #0E6B02",
"u 	c #017B00",
"v 	c #018500",
"w 	c #0E7A03",
"x 	c #256D07",
"y 	c #D8A61F",
"z 	c #FED827",
"A 	c #BE900A",
"B 	c #917D49",
"C 	c #B4B5B3",
"D 	c #DAD6C4",
"E 	c #83837C",
"F 	c #A29236",
"G 	c #A6A71F",
"H 	c #0D5402",
"I 	c #007500",
"J 	c #009900",
"K 	c #006600",
"L 	c #00AA00",
"M 	c #596F0D",
"N 	c #E3AB1E",
"O 	c #FFBE1E",
"P 	c #FFC41D",
"Q 	c #9D7921",
"R 	c #7B7872",
"S 	c #5F5815",
"T 	c #33640A",
"U 	c #008D00",
"V 	c #1B780A",
"W 	c #5E8628",
"X 	c #366C10",
"Y 	c #0A9701",
"Z 	c #107C05",
"` 	c #776810",
" .	c #F4B81B",
"..	c #FDCB1D",
"+.	c #A3710A",
"@.	c #7C7259",
"#.	c #857850",
"$.	c #1D3600",
"%.	c #006B00",
"&.	c #F1D567",
"*.	c #FFEE55",
"=.	c #FCD143",
"-.	c #C48C23",
";.	c #326A07",
">.	c #00A300",
",.	c #275F0C",
"'.	c #E4B024",
").	c #A36E08",
"!.	c #817455",
"~.	c #D1CEBA",
"{.	c #948575",
"].	c #336523",
"^.	c #009400",
"/.	c #185003",
"(.	c #CAC84B",
"_.	c #EBB62A",
":.	c #5D610B",
"<.	c #01B500",
"[.	c #167C0A",
"}.	c #CFA135",
"|.	c #FFB623",
"1.	c #746E53",
"2.	c #C3C3AA",
"3.	c #C8BCAC",
"4.	c #7FAD6D",
"5.	c #18A013",
"6.	c #0E6508",
"7.	c #B69929",
"8.	c #FFC729",
"9.	c #E69B19",
"0.	c #456007",
"a.	c #D0A040",
"b.	c #FFA921",
"c.	c #986913",
"d.	c #6F6F62",
"e.	c #C1BEA2",
"f.	c #B3B096",
"g.	c #A2AB86",
"h.	c #53A344",
"i.	c #4A7009",
"j.	c #A37F12",
"k.	c #CC9616",
"l.	c #B88613",
"m.	c #70650A",
"n.	c #148602",
"o.	c #00C900",
"p.	c #2B6715",
"q.	c #F1A942",
"r.	c #D67F0F",
"s.	c #7E6128",
"t.	c #8D9284",
"u.	c #A9AA8B",
"v.	c #BAAC97",
"w.	c #8EA473",
"x.	c #249F1D",
"y.	c #1E5C04",
"z.	c #176603",
"A.	c #02C500",
"B.	c #19930B",
"C.	c #E58C21",
"D.	c #7B4E13",
"E.	c #BBB898",
"F.	c #A6A484",
"G.	c #AAA586",
"H.	c #2D9F24",
"I.	c #0AAB06",
"J.	c #00BB00",
"K.	c #875310",
"L.	c #9D9C7C",
"M.	c #A19D7C",
"N.	c #A2A47B",
"O.	c #659F4F",
"P.	c #28A21E",
"Q.	c #11AA0C",
"R.	c #055400",
"S.	c #745909",
"T.	c #B0640C",
"U.	c #6B4B18",
"V.	c #6D6D57",
"W.	c #9D9C76",
"X.	c #A8A47F",
"Y.	c #849261",
"Z.	c #3B2916",
"`.	c #643C10",
" +	c #675228",
".+	c #5D614B",
"++	c #949373",
"@+	c #928F6A",
"#+	c #8E8D69",
"$+	c #91926D",
"%+	c #2F2E30",
". . . . . . . . . . . . . . . . . . . ",
"+ + + + + @ # $ # # # @ % & + + + + + ",
"* = * - ; > , ' ' ' ) , > = - * = * * ",
"$ @ $ ! ~ { ] ^ / ( _ _ : < ! $ @ $ % ",
"[ & } | ^ 1 2 2 2 3 4 5 6 7 8 9 & [ [ ",
"0 a b c d e f g h i j d k 6 l m n 0 o ",
"! p q r s t u u v w x i y z 6 A B C D ",
"E F G H I J v K I L J K M N O P Q R D ",
") S T U J V W p W X Y L Z `  ...+.@.D ",
"#.$.K J %.e &.*.=.-.;.>.>.,.'.P ).!.~.",
"{.].^.^./.(.*._.P ..:.u <.[.}.|.).1.2.",
"3.4.5.^.6.7.8...O 9.0.^.<.w a.b.c.d.e.",
"f.g.h.J v i.j.k.l.m.n.o.L p.q.r.s.t.f.",
"u.v.w.x.>.U t y.z.v A.o.B.8 C.D.1.E.9 ",
"F.F.G.w.H.I.<.J.A.A.J.v m.-.K.1.L.G.F.",
"L.M.L.N.L.O.P.Q.Q.U R.S.T.U.V.W.X.M.F.",
"L.W.L.W.W.M.M.N.Y.Z.`. +.+++M.W.W.W.W.",
"@+#+#+#+#+#+#+@+#+$+@+$+@+#+#+#+#+#+#+",
"%+%+%+%+%+%+%+%+%+. %+%+%+%+%+. %+%+%+"};
