/* XPM */
static char * maximize_inactive_xpm[] = {
"19 19 96 2",
"  	c None",
". 	c #272728",
"+ 	c #272627",
"@ 	c #C7C3C0",
"# 	c #CDC9C2",
"$ 	c #CFCAC8",
"% 	c #C6C3BE",
"& 	c #C9C5BE",
"* 	c #DAD6D0",
"= 	c #DFDBD5",
"- 	c #D6D2CD",
"; 	c #95928C",
"> 	c #767468",
", 	c #7D7B69",
"' 	c #848270",
") 	c #78766C",
"! 	c #999691",
"~ 	c #D9D4CF",
"{ 	c #D1CDC6",
"] 	c #706D63",
"^ 	c #96937C",
"/ 	c #B5B3A5",
"( 	c #ABA99D",
"_ 	c #9E9B82",
": 	c #666459",
"< 	c #BDBAB4",
"[ 	c #8F8C85",
"} 	c #787766",
"| 	c #A6A48D",
"1 	c #BFBEA2",
"2 	c #C5C4A7",
"3 	c #BAB799",
"4 	c #B4B28F",
"5 	c #B8B593",
"6 	c #A5A383",
"7 	c #84836B",
"8 	c #646354",
"9 	c #8B887B",
"0 	c #6D6C5A",
"a 	c #ACAB93",
"b 	c #99967C",
"c 	c #68674C",
"d 	c #54523D",
"e 	c #5C5A43",
"f 	c #565542",
"g 	c #7D7B5B",
"h 	c #A19E7A",
"i 	c #ADAB8A",
"j 	c #A8A684",
"k 	c #908E70",
"l 	c #87857B",
"m 	c #9E9B93",
"n 	c #8D8B6D",
"o 	c #5A593F",
"p 	c #6B694D",
"q 	c #5F5D4B",
"r 	c #848263",
"s 	c #79775A",
"t 	c #BEBBAD",
"u 	c #75745C",
"v 	c #4B4A35",
"w 	c #646249",
"x 	c #84825F",
"y 	c #757355",
"z 	c #605F45",
"A 	c #8A8866",
"B 	c #9A987A",
"C 	c #A8A57F",
"D 	c #737263",
"E 	c #414032",
"F 	c #787655",
"G 	c #817F5D",
"H 	c #8C8B71",
"I 	c #7C7A64",
"J 	c #898765",
"K 	c #ABA983",
"L 	c #6C6B52",
"M 	c #B9B6A6",
"N 	c #27261D",
"O 	c #CBC9AC",
"P 	c #B2B090",
"Q 	c #4C4B3A",
"R 	c #939174",
"S 	c #B4B29D",
"T 	c #7B7A57",
"U 	c #A4A27E",
"V 	c #817F61",
"W 	c #636146",
"X 	c #706E52",
"Y 	c #908E6A",
"Z 	c #94916A",
"` 	c #605F4D",
" .	c #514F44",
"..	c #898768",
"+.	c #3D3C2C",
"@.	c #2B2A2B",
". . . . . . . + + . . . . . . . . . . ",
"@ @ @ @ @ # $ $ $ $ $ $ $ @ @ % @ & & ",
"* * * = - ; > , ' ' , ) ! - = ~ ~ ~ * ",
"@ { & ! ] ^ / ( _ _ _ _ ' : ! @ { # & ",
"& < [ } | 1 2 3 4 5 4 | 6 7 8 [ < % % ",
"& 9 0 a b c d e d f g h i j k f l # < ",
"m n 7 0 d o c p p p o q r j j s 0 m t ",
"> 0 u v w x y d c x g d z A B C p D t ",
", E d F G e 8 H I f F J w e B K p L M ",
"8 N f x z D a O P u d s s Q R K w 8 S ",
"} f F T v | 2 B U K d q G e B C w 8 P ",
"| b A F d V U C h J d p G W b U W 8 | ",
"b ^ n G X e c V y d W Y T f | , f , _ ",
"b ^ k r J c d Q d W Y Z X X R Q w 6 _ ",
"R k R H r A Y Y Z Z J z ` r  .q 7 k k ",
"n n n n A A x V r p E d w v ` 7 k n n ",
"............A Z g N +.d d G A ........",
"I I G g I g g G G r V I I g G G g g x ",
"@.@.@.@.@.@.@.@.@.@.@.@.@.@.@.@.@.@.@."};
