/* XPM */
static char * options_activedown_xpm[] = {
"19 19 210 2",
"  	c None",
". 	c #2B2A2B",
"+ 	c #E3DEDB",
"@ 	c #E3E0D5",
"# 	c #DBD4DA",
"$ 	c #E9E4DC",
"% 	c #EDE8E2",
"& 	c #E2DFD6",
"* 	c #F9F5ED",
"= 	c #FCF5F2",
"- 	c #FEF2FC",
"; 	c #FFF9F8",
"> 	c #F4F3E4",
", 	c #C9C7C4",
"' 	c #A7A59B",
") 	c #96938F",
"! 	c #BBB8B9",
"~ 	c #E6E2DA",
"{ 	c #EAE3E1",
"] 	c #C9E59E",
"^ 	c #AAF24F",
"/ 	c #8EE428",
"( 	c #7DB92E",
"_ 	c #A9AE61",
": 	c #DAD57E",
"< 	c #ECEE67",
"[ 	c #B3B251",
"} 	c #86847D",
"| 	c #DDDACA",
"1 	c #A9FB46",
"2 	c #94FC0C",
"3 	c #99FF02",
"4 	c #7CDA00",
"5 	c #729B1B",
"6 	c #E2E27B",
"7 	c #FFFE7A",
"8 	c #FFFF5A",
"9 	c #D9D234",
"0 	c #8B8640",
"a 	c #D3C8C7",
"b 	c #D9D7C9",
"c 	c #C7CBB1",
"d 	c #759646",
"e 	c #78A61C",
"f 	c #7FC20C",
"g 	c #77BB04",
"h 	c #798E2D",
"i 	c #F4F56C",
"j 	c #FFFF4C",
"k 	c #DEDD43",
"l 	c #86942E",
"m 	c #A7D442",
"n 	c #CCDBAC",
"o 	c #D4D2C3",
"p 	c #B7B3AE",
"q 	c #9D9C75",
"r 	c #BBC55C",
"s 	c #D5D076",
"t 	c #DED659",
"u 	c #A5A731",
"v 	c #779616",
"w 	c #8BB30B",
"x 	c #929430",
"y 	c #BDAF3E",
"z 	c #C5B845",
"A 	c #95943A",
"B 	c #709A10",
"C 	c #88EE00",
"D 	c #D8E46F",
"E 	c #EBCDC4",
"F 	c #D1CDBB",
"G 	c #9E9B83",
"H 	c #9E9E63",
"I 	c #FFFF97",
"J 	c #FFFF6D",
"K 	c #E6D944",
"L 	c #ADAB2A",
"M 	c #8AB503",
"N 	c #A1AE18",
"O 	c #9DAF1A",
"P 	c #9DB412",
"Q 	c #A3D500",
"R 	c #A4F200",
"S 	c #C6EA33",
"T 	c #D6D890",
"U 	c #CCC9B3",
"V 	c #98956F",
"W 	c #9BA147",
"X 	c #FFFF72",
"Y 	c #FFF740",
"Z 	c #FFEC3A",
"` 	c #BBB22A",
" .	c #94B403",
"..	c #DCFC00",
"+.	c #D4F500",
"@.	c #C8F200",
"#.	c #C2F301",
"$.	c #B1EC0B",
"%.	c #BEDB6E",
"&.	c #CEC9C3",
"*.	c #C4C3AA",
"=.	c #D0C6BD",
"-.	c #94B25E",
";.	c #C6AF40",
">.	c #E9CE3C",
",.	c #A89331",
"'.	c #8D9116",
").	c #B6D100",
"!.	c #ADB920",
"~.	c #B5BE26",
"{.	c #9BB707",
"].	c #BED164",
"^.	c #C7BEBC",
"/.	c #BEBEA3",
"(.	c #C3B8B5",
"_.	c #AAD757",
":.	c #82CF00",
"<.	c #7E9517",
"[.	c #9EA822",
"}.	c #A2A41F",
"|.	c #96A20F",
"1.	c #95AA05",
"2.	c #ABA65E",
"3.	c #C0AC73",
"4.	c #C7AE60",
"5.	c #B49D40",
"6.	c #9C9021",
"7.	c #99AF09",
"8.	c #B2E60D",
"9.	c #C0DA68",
"0.	c #BEB7B2",
"a.	c #B9B89B",
"b.	c #BCB3A8",
"c.	c #AECA69",
"d.	c #A7F314",
"e.	c #AAF800",
"f.	c #96D100",
"g.	c #A8D802",
"h.	c #B2C01B",
"i.	c #B0A56F",
"j.	c #F8ED9A",
"k.	c #FFE96E",
"l.	c #F9DC42",
"m.	c #F3CD2D",
"n.	c #7D6D1C",
"o.	c #9BB732",
"p.	c #C2D777",
"q.	c #B8B0A5",
"r.	c #B4B196",
"s.	c #B0B688",
"t.	c #A8D344",
"u.	c #AAF400",
"v.	c #BAF403",
"w.	c #CEFF03",
"x.	c #9A9D38",
"y.	c #FFEC8B",
"z.	c #FCD26A",
"A.	c #F9CB2F",
"B.	c #FACC1F",
"C.	c #FFD12B",
"D.	c #F6C425",
"E.	c #B48A21",
"F.	c #9C9654",
"G.	c #ADAC8C",
"H.	c #AFA598",
"I.	c #ABB674",
"J.	c #A7E21D",
"K.	c #B1F100",
"L.	c #C3FF00",
"M.	c #94BF00",
"N.	c #FECE6F",
"O.	c #FDC425",
"P.	c #FEC927",
"Q.	c #FBBD20",
"R.	c #B88317",
"S.	c #938663",
"T.	c #A0A392",
"U.	c #B1AD8C",
"V.	c #A7A485",
"W.	c #A7B072",
"X.	c #AADB25",
"Y.	c #B0E500",
"Z.	c #B8913C",
"`.	c #F5B530",
" +	c #FFB61E",
".+	c #E39F1C",
"++	c #936620",
"@+	c #9A8F6B",
"#+	c #A09E7C",
"$+	c #A3B850",
"%+	c #BCE91C",
"&+	c #A4D00F",
"*+	c #747A20",
"=+	c #B18327",
"-+	c #DD941E",
";+	c #E99E1D",
">+	c #C68820",
",+	c #88632A",
"'+	c #707159",
")+	c #929579",
"!+	c #A19E76",
"~+	c #9A937E",
"{+	c #A3A869",
"]+	c #747961",
"^+	c #5F5339",
"/+	c #515D5E",
"(+	c #8E8D69",
"_+	c #918F6A",
":+	c #979470",
"<+	c #2F2E30",
". . . . . . . . . . . . . . . . . . . ",
"+ + + + @ + @ @ # @ $ % % $ # & + + + ",
"* * * * * * = - ; > , ' ) ! * * * * * ",
"$ $ $ $ ~ { ] ^ / ( _ : < [ } @ > @ $ ",
"@ @ & ~ | 1 2 3 4 5 6 7 8 9 0 a $ @ @ ",
"| b $ c d e e f g h i 8 j k l m n # | ",
"o | p q r s t u v w x y z A B C D E o ",
"F | G H I J j K L M w N O P Q R S T o ",
"U o V W X Y Z Z `  ...+.@.....#.$.%.&.",
"*.=.-.v ;.>.>.,.'.).P !.~.O {.@.#.].^.",
"/.(._.:.<.[.}.|.1.[.2.3.4.5.6.7.8.9.0.",
"a.b.c.d.e.f.g.#.h.i.j.k.l.Z m.n.o.p.q.",
"r.r.s.t.u.v.w. .x.y.z.A.B.C.D.E.F.G.r.",
"G.G.H.I.J.K.L.M.x.N.A.A.O.P.Q.R.S.T.U.",
"V.V.V.V.W.X.v.Y.P Z.`.O.Q. +.+++@+G.V.",
"#+#+#+#+#+#+$+%+&+*+=+-+;+>+,+'+)+V.#+",
"q q q q q !+q ~+#+{+]+,+^+/+(+!+q q q ",
"(+(+(+(+(+(+(+(+(+(+_+(+)+:+(+(+(+_+(+",
"<+<+<+<+<+<+<+<+<+<+<+<+<+<+<+<+. <+<+"};
