/* XPM */
static char * options_inactive_xpm[] = {
"19 19 97 2",
"  	c None",
". 	c #282728",
"+ 	c #272727",
"@ 	c #2A2A2B",
"# 	c #C7C3C0",
"$ 	c #CBC7C1",
"% 	c #CFCBC8",
"& 	c #C6C2BD",
"* 	c #DAD6D0",
"= 	c #D9D5CF",
"- 	c #DDD9D3",
"; 	c #ADA9A6",
"> 	c #898680",
", 	c #797771",
"' 	c #A19E98",
") 	c #CCC9C2",
"! 	c #B2AEA2",
"~ 	c #98967E",
"{ 	c #7D7B61",
"] 	c #666551",
"^ 	c #7E7C6B",
"/ 	c #A7A492",
"( 	c #797766",
"_ 	c #6A6963",
": 	c #C9C5BE",
"< 	c #C5C1B4",
"[ 	c #97947A",
"} 	c #868462",
"| 	c #636246",
"1 	c #4F4D39",
"2 	c #BCBBA1",
"3 	c #BBB99C",
"4 	c #87856B",
"5 	c #545340",
"6 	c #B6B3A4",
"7 	c #CDCABF",
"8 	c #C1BEB2",
"9 	c #BEBBB0",
"0 	c #ACA99D",
"a 	c #605F4B",
"b 	c #5D5B44",
"c 	c #53523C",
"d 	c #58563F",
"e 	c #B5B398",
"f 	c #B6B491",
"g 	c #8C8A6B",
"h 	c #8A8972",
"i 	c #BCB9AB",
"j 	c #C7C5AB",
"k 	c #9F9C91",
"l 	c #9C9C88",
"m 	c #4B4937",
"n 	c #79775B",
"o 	c #747256",
"p 	c #A5A38E",
"q 	c #737363",
"r 	c #CECDB7",
"s 	c #B3B18F",
"t 	c #949273",
"u 	c #69674E",
"v 	c #706E50",
"w 	c #7D7B5B",
"x 	c #A9A794",
"y 	c #BAB7A9",
"z 	c #6F6E58",
"A 	c #A9A787",
"B 	c #A4A282",
"C 	c #9C9976",
"D 	c #6D6B52",
"E 	c #93916E",
"F 	c #888664",
"G 	c #908E6B",
"H 	c #84815F",
"I 	c #817F5D",
"J 	c #9D9A83",
"K 	c #64624A",
"L 	c #B1AE9D",
"M 	c #8D8C7A",
"N 	c #848372",
"O 	c #C8C7B3",
"P 	c #C0BFA4",
"Q 	c #AAA889",
"R 	c #B1AF8A",
"S 	c #989672",
"T 	c #403F2F",
"U 	c #A29F89",
"V 	c #605F46",
"W 	c #ACAA95",
"X 	c #999681",
"Y 	c #918F72",
"Z 	c #75735A",
"` 	c #434231",
" .	c #9A9879",
"..	c #787657",
"+.	c #6B694F",
"@.	c #89876A",
"#.	c #8A8866",
". . . . + + . . . . + + + + . + . @ . ",
"# # # # # # # # # # $ % % $ # # # & & ",
"* * * * * = * - - = ; > , ' * * = * = ",
") ) ) & ) % ! ~ { ] ^ / / ( _ & % : ) ",
"& & & $ < [ { } | 1 / 2 3 4 5 6 7 & & ",
"8 9 ) 0 a b c b d d e 3 f g 1 h i & 8 ",
"i j k ( h l ~ ] m b b n n d m o p i i ",
"6 < ^ q r 3 s t u b b | | | v w h x y ",
"e i ( z j A B C D b E F w g G H I J 6 ",
"0 6 ^ c n G G | m o | D n K | H } ~ L ",
"/ x t | c | | d b K { M h n d | w J x ",
"B / t } H K o w o N O P Q R S T D B U ",
"J J ~ 4 H H E V K j W C E C G b o [ l ",
"[ ~ ~ t } I g | D e B S S C G 5 v t X ",
"Y Y t t g } } n u Z S S t S w ` n  .h ",
"4 g g g g g } G ..m | w } +.m K } h g ",
"4 @.#.g @.@.@.F g @.K m ` d ..g #.@.@.",
"w } w w w w w w w n } } w } w w w w w ",
"@ @ @ @ @ @ @ @ @ @ @ @ @ @ @ @ @ @ @ "};
