/* XPM */
static char * options_activeup_xpm[] = {
"19 19 199 2",
"  	c None",
". 	c #2B2A2B",
"+ 	c #E3DEDB",
"@ 	c #DFDCD6",
"# 	c #E9E4DD",
"$ 	c #ECE7E2",
"% 	c #F9F5EE",
"& 	c #F6F3EB",
"* 	c #FCF7F2",
"= 	c #FFFBFA",
"- 	c #EFECE3",
"; 	c #C2BFC0",
"> 	c #9B9992",
", 	c #888683",
"' 	c #B5B1B5",
") 	c #E7E3DA",
"! 	c #EFE8DC",
"~ 	c #F1E7E2",
"{ 	c #A7C69D",
"] 	c #57A64F",
"^ 	c #228627",
"/ 	c #2B7226",
"( 	c #9BA04C",
"_ 	c #DBD662",
": 	c #E6E84F",
"< 	c #ABAA3D",
"[ 	c #7C7A6C",
"} 	c #F1EEE4",
"| 	c #E3E0D6",
"1 	c #E0DED2",
"2 	c #CDDFBF",
"3 	c #48A748",
"4 	c #0C8D0E",
"5 	c #029301",
"6 	c #007400",
"7 	c #2E640B",
"8 	c #DCE05C",
"9 	c #FFFF5D",
"0 	c #FFFF44",
"a 	c #CFC41D",
"b 	c #757228",
"c 	c #CECABE",
"d 	c #DDDACB",
"e 	c #D9D6C9",
"f 	c #BAC0B0",
"g 	c #44693C",
"h 	c #386E0F",
"i 	c #0E7104",
"j 	c #006500",
"k 	c #F1F353",
"l 	c #FFFE37",
"m 	c #EFC92C",
"n 	c #6D6917",
"o 	c #539E49",
"p 	c #BDD3B5",
"q 	c #D7D3C4",
"r 	c #B4AFAC",
"s 	c #8B9169",
"t 	c #A9B542",
"u 	c #D4CB57",
"v 	c #DFCD42",
"w 	c #8F8C1D",
"x 	c #2D5B12",
"y 	c #7E8717",
"z 	c #BB8027",
"A 	c #C99B28",
"B 	c #76781B",
"C 	c #155A02",
"D 	c #008900",
"E 	c #7CBA70",
"F 	c #D0CDBB",
"G 	c #96957B",
"H 	c #94934A",
"I 	c #FFFF75",
"J 	c #FFF455",
"K 	c #FFF438",
"L 	c #006E00",
"M 	c #2F7B09",
"N 	c #35780A",
"O 	c #167804",
"P 	c #36A630",
"Q 	c #A3AD87",
"R 	c #C9C8B3",
"S 	c #DBD3C5",
"T 	c #8E8C69",
"U 	c #89892E",
"V 	c #FFDE2D",
"W 	c #FBDC25",
"X 	c #F8C729",
"Y 	c #8E8C17",
"Z 	c #01BA00",
"` 	c #01AA01",
" .	c #01A200",
"..	c #02B500",
"+.	c #0D9D0B",
"@.	c #C2C1AA",
"#.	c #DBCEBE",
"$.	c #618C5A",
"%.	c #336305",
"&.	c #ECB424",
"*.	c #9F7518",
"=.	c #0D8004",
"-.	c #378C14",
";.	c #489319",
">.	c #2A9211",
",.	c #007C00",
"'.	c #72B264",
").	c #D6C6BC",
"!.	c #BCBCA2",
"~.	c #D2C1B5",
"{.	c #61A757",
"].	c #2E5F09",
"^.	c #5F760D",
"/.	c #207104",
"(.	c #2F7D13",
"_.	c #948D44",
":.	c #CF9A57",
"<.	c #DB9746",
"[.	c #696C0D",
"}.	c #0B7A01",
"|.	c #019D02",
"1.	c #76B965",
"2.	c #CEBEB2",
"3.	c #B7B79B",
"4.	c #C5B9A8",
"5.	c #7CAB69",
"6.	c #199D14",
"7.	c #008500",
"8.	c #B99050",
"9.	c #FCD074",
"0.	c #FFCB54",
"a.	c #F8BB30",
"b.	c #FFC725",
"c.	c #F2AA16",
"d.	c #574905",
"e.	c #328725",
"f.	c #86BF75",
"g.	c #C5B5A5",
"h.	c #B4B195",
"i.	c #51A144",
"j.	c #0EB804",
"k.	c #4C7524",
"l.	c #FFCB6C",
"m.	c #FDAD48",
"n.	c #F6A417",
"o.	c #F29E0D",
"p.	c #FFAB16",
"q.	c #A86806",
"r.	c #7B834B",
"s.	c #97AB8A",
"t.	c #BAB297",
"u.	c #ACAA8C",
"v.	c #BAAC98",
"w.	c #8EA573",
"x.	c #249C1D",
"y.	c #FFAA54",
"z.	c #FFA82B",
"A.	c #FC9C0B",
"B.	c #FBA50E",
"C.	c #F69406",
"D.	c #955900",
"E.	c #8A7A59",
"F.	c #A6A691",
"G.	c #B0AC8C",
"H.	c #A6A484",
"I.	c #AAA487",
"J.	c #2DA124",
"K.	c #0AA906",
"L.	c #247F0C",
"M.	c #A86F24",
"N.	c #F29018",
"O.	c #FF9705",
"P.	c #D07802",
"Q.	c #624110",
"R.	c #898568",
"S.	c #B1B08F",
"T.	c #A5A27F",
"U.	c #9F9E7C",
"V.	c #A19D7C",
"W.	c #669D4F",
"X.	c #28AF1E",
"Y.	c #0A960D",
"Z.	c #9F640F",
"`.	c #D4770A",
" +	c #DE8009",
".+	c #B56604",
"++	c #724A14",
"@+	c #6F6D55",
"#+	c #9D9C76",
"$+	c #A09E77",
"%+	c #9FA077",
"&+	c #8CA069",
"*+	c #6C7259",
"=+	c #585643",
"-+	c #4E4B36",
";+	c #605E47",
">+	c #928E6A",
",+	c #93906B",
"'+	c #2F2E30",
". . . . . . . . . . . . . . . . . . . ",
"+ + + + + + + + @ + # $ $ # @ @ + + + ",
"% % % % & & * = * - ; > , ' * % & % % ",
"# # # ) ! ~ { ] ^ / ( _ : < [ @ } ) # ",
"| | 1 # 2 3 4 5 6 7 8 9 0 a b c # 1 | ",
"d e ! f g h 7 i j h k 0 l m n o p # e ",
"q d r s t u v w x i y z A B C D E q q ",
"F d G H I J K m y L L M N O D 5 P Q d ",
"R S T U J V W X Y 6 Z `  .Z .. .+.E S ",
"@.#.$.%.A &.&.*.%.5 =.-.;.>.,.` ` '.).",
"!.~.{.L ].^.^./.6 (._.:.<.z [.}.|.1.2.",
"3.4.5.6.|.7.5  .>.8.9.0.a.b.c.d.e.f.g.",
"h.h.Q i.|. .j.,.k.l.m.n.o.p.o.q.r.s.t.",
"u.u.v.w.x. .` 7.k.y.z.A.A.B.C.D.E.F.G.",
"H.H.H.I.w.J.K. .L.M.N.A.O.O.P.Q.R.S.H.",
"T.U.T.U.V.U.W.X.Y.x Z.`. +.+++@+G H.V.",
"#+#+#+#+#+#+$+V.%+&+*+=+-+;+T $+#+#+$+",
"T T T T >+T T T T T >+>+,+>+T T T T T ",
"'+'+'+'+'+'+'+. '+'+'+'+'+'+'+'+. '+'+"};
