/* XPM */
static char * titlelt_active_xpm[] = {
"12 19 112 2",
"  	c None",
". 	c #2A292A",
"+ 	c #313030",
"@ 	c #2E302A",
"# 	c #E2DDDA",
"$ 	c #BCB6B6",
"% 	c #4C5048",
"& 	c #225319",
"* 	c #F9F5EE",
"= 	c #F7F2EC",
"- 	c #FDFBF2",
"; 	c #FFFFF8",
"> 	c #F1ECE5",
", 	c #93958C",
"' 	c #284820",
") 	c #E9E5DC",
"! 	c #BEBDB5",
"~ 	c #655C66",
"{ 	c #474542",
"] 	c #494845",
"^ 	c #5E5460",
"/ 	c #A39F9B",
"( 	c #B2ABAA",
"_ 	c #545752",
": 	c #2C5B19",
"< 	c #E3E0D4",
"[ 	c #CAC8BE",
"} 	c #5D595B",
"| 	c #214B0F",
"1 	c #237200",
"2 	c #275910",
"3 	c #3E4F33",
"4 	c #424F3B",
"5 	c #295917",
"6 	c #2C8803",
"7 	c #DEDACC",
"8 	c #8B8685",
"9 	c #354E27",
"0 	c #2E8102",
"a 	c #35A100",
"b 	c #339A00",
"c 	c #329500",
"d 	c #2C7D02",
"e 	c #318D02",
"f 	c #D6D3C2",
"g 	c #726B6E",
"h 	c #39641F",
"i 	c #399302",
"j 	c #3A9A00",
"k 	c #3BA000",
"l 	c #D1CDBD",
"m 	c #908D85",
"n 	c #3A472F",
"o 	c #439B00",
"p 	c #4CA100",
"q 	c #CCC8B5",
"r 	c #C4C1AD",
"s 	c #686361",
"t 	c #3A8C05",
"u 	c #4CA800",
"v 	c #C9C6B1",
"w 	c #B7B59D",
"x 	c #554B58",
"y 	c #325816",
"z 	c #50A300",
"A 	c #BDBAA3",
"B 	c #C1BFA9",
"C 	c #CCCAAF",
"D 	c #8C8B7F",
"E 	c #444E35",
"F 	c #4B800B",
"G 	c #5CB000",
"H 	c #58A700",
"I 	c #BAB79E",
"J 	c #B3B195",
"K 	c #3A5910",
"L 	c #72C200",
"M 	c #5FA801",
"N 	c #B1AE93",
"O 	c #BEBE9A",
"P 	c #69AF00",
"Q 	c #ADAA8C",
"R 	c #B1B08D",
"S 	c #595158",
"T 	c #426111",
"U 	c #7CC500",
"V 	c #71B300",
"W 	c #A6A384",
"X 	c #A4A27F",
"Y 	c #8D8A73",
"Z 	c #4B4C3F",
"` 	c #567D0E",
" .	c #77B800",
"..	c #A19F7D",
"+.	c #5C5556",
"@.	c #45571F",
"#.	c #74AA06",
"$.	c #8AC500",
"%.	c #7EBB00",
"&.	c #86BB02",
"*.	c #999773",
"=.	c #6B6B56",
"-.	c #404531",
";.	c #6B930C",
">.	c #8FCD00",
",.	c #868463",
"'.	c #727158",
").	c #47473E",
"!.	c #32332A",
"~.	c #688911",
"{.	c #302F32",
"].	c #2F2D25",
". . . . . . . . . . + @ ",
"# # # # # # # # # $ % & ",
"* * = - - # # - ; > , ' ",
") ) > ! ~ { ] ^ / ( _ : ",
"< < [ } | 1 1 2 3 4 5 6 ",
"7 < 8 9 0 a b c d d e c ",
"f 7 g h i j i j k k j j ",
"l f m n 6 k o p o o j o ",
"q q r s 9 t u p p p p p ",
"r r v w x y u p p p z z ",
"A B w C D E F G H H H H ",
"I A I w J } K L M M M M ",
"J J J N O ^ K L P P P P ",
"Q Q Q Q R S T U P V V V ",
"W W X Q Y Z ` U  . . . .",
"......W +.@.#.$.%.&.%.%.",
"..*.*.=.-.;.>.&.$.$.$.$.",
",.'.).!.~.&.&.&.&.&.&.&.",
"!.{.{.].].].].].].].].]."};
