/* XPM */
static char * titlelt_inactive_xpm[] = {
"12 19 64 1",
" 	c None",
".	c #272728",
"+	c #272627",
"@	c #2B2B2C",
"#	c #C6C2BE",
"$	c #C9C6C0",
"%	c #A9A6A0",
"&	c #434342",
"*	c #333334",
"=	c #DAD6D0",
"-	c #D8D4CE",
";	c #DEDAD4",
">	c #E5E0DA",
",	c #D3CFC8",
"'	c #898885",
")	c #CCC8C1",
"!	c #A7A49F",
"~	c #585754",
"{	c #3C3C3C",
"]	c #403E3E",
"^	c #4F504F",
"/	c #9B9892",
"(	c #474847",
"_	c #B2AEA9",
":	c #4B4C4B",
"<	c #3B3B37",
"[	c #767468",
"}	c #383732",
"|	c #BAB7A7",
"1	c #C5C2B6",
"2	c #61605D",
"3	c #43433D",
"4	c #4B4B46",
"5	c #B3B0A0",
"6	c #BAB7AA",
"7	c #7F7D77",
"8	c #ACA998",
"9	c #ACA997",
"0	c #B1AE9D",
"a	c #A29F89",
"b	c #535353",
"c	c #A8A591",
"d	c #7A796D",
"e	c #9D9A82",
"f	c #55544B",
"g	c #585857",
"h	c #99967C",
"i	c #A4A28B",
"j	c #5C5C5C",
"k	c #575856",
"l	c #96937B",
"m	c #626261",
"n	c #918F73",
"o	c #8C8A72",
"p	c #717063",
"q	c #8D8B6D",
"r	c #929072",
"s	c #504E46",
"t	c #8A8867",
"u	c #868565",
"v	c #5E5D4C",
"w	c #686766",
"x	c #757357",
"y	c #63624D",
"....++....@@",
"#####$##$%&*",
"==-;;$$;>,'@",
")),!~{]^'/({",
"##_:@<**]]*(",
"#)[}&^:(&{(:",
"|12344::^^::",
"567*{^(:((((",
"558~*(^^^^^^",
"890a:*^bbbbb",
"cca0d](b^bb^",
"aaaaef{gbbbb",
"aeehi^*jbbjk",
"ehlle4{mkgkj",
"nnolp&(jjjjj",
"qqqrs<~mjjmj",
"tutv}:wmm2mm",
"xy<@:mjjjjgj",
"@@*@@@@@@@@@"};
